<?xml version="1.0" encoding="UTF-8" standalone="no"?>
<svg xmlns="http://www.w3.org/2000/svg" xmlns:xlink="http://www.w3.org/1999/xlink" xmlns:serif="http://www.serif.com/" width="512px" height="512px" version="1.1" xml:space="preserve" style="fill-rule:evenodd;clip-rule:evenodd;stroke-linejoin:round;stroke-miterlimit:2;">
    <rect id="Artboard1" x="0" y="0" width="512" height="512" style="fill:none;"></rect>
    <g id="Artboard11" serif:id="Artboard1">
        <path d="M300.573,49.84L283.76,1.095L150.647,1.095C149.874,1.059 148.578,1.012 146.81,1.012C101.988,1.012 56.78,29.712 56.78,93.85L56.78,331.93C56.78,393.002 72.651,404.593 157.051,455.825C210.651,488.338 234.855,501.196 245.73,506.252L247.746,507.187L255.999,511L255.999,456.843C243.908,450.497 221.884,438.136 182.358,414.124C105.523,367.51 105.523,367.51 105.523,331.93L105.523,93.85C105.523,64.629 119.406,49.781 146.81,49.781L211.34,49.805L249.869,49.84C251.085,55.606 253.046,63.776 255.5,71.366L255.999,72.798L281.557,150.386L255.999,150.386L255.999,194.763L294.635,194.763L312.025,246.753L314.838,248.304C325.574,254.26 342.437,259.292 361.183,262.074L374.4,264.063L300.573,49.84Z" style="fill:rgb(243,112,42);fill-rule:nonzero;"></path>
        <path d="M365.135,1C363.398,1 362.099,1.059 361.931,1.083L283.741,1.083L300.58,49.829L362.402,49.829L363.701,49.805L364.693,49.829L365.135,49.769C392.567,49.769 406.45,64.629 406.45,93.874L406.45,331.954C406.45,367.498 406.45,367.498 329.61,414.113C322.331,418.529 315.867,422.448 309.769,426.095C282.529,442.327 265.86,451.646 255.979,456.843L255.979,510.988L264.203,507.187L266.243,506.24C273.476,502.854 286.917,495.868 310.65,482.122C322.577,475.196 336.978,466.694 354.922,455.813C439.321,404.593 455.22,393.002 455.22,331.954L455.22,93.874C455.22,29.736 409.957,1 365.135,1Z" style="fill:rgb(0,41,74);fill-rule:nonzero;"></path>
        <path d="M255.991,150.386L230.404,150.386L255.991,72.81L255.492,71.366C253.034,63.752 251.077,55.583 249.862,49.817L211.356,49.817L146.223,238.406L137.556,264.063L150.807,262.086C169.515,259.268 186.408,254.271 197.091,248.304L199.82,245.936L217.317,194.739L255.991,194.739L255.991,150.386Z" style="fill:rgb(0,41,74);fill-rule:nonzero;"></path>
    </g>
</svg>
